<?xml version="1.0" standalone="no"?>
<!DOCTYPE svg PUBLIC "-//W3C//DTD SVG 20010904//EN"
 "http://www.w3.org/TR/2001/REC-SVG-20010904/DTD/svg10.dtd">
<svg version="1.0" xmlns="http://www.w3.org/2000/svg"
 width="882.000000pt" height="882.000000pt" viewBox="0 0 882.000000 882.000000"
 preserveAspectRatio="xMidYMid meet">
<metadata>
Created by potrace 1.11, written by Peter Selinger 2001-2013
</metadata>
<g transform="translate(0.000000,882.000000) scale(0.100000,-0.100000)"
fill="#000000" stroke="none">
<path d="M0 4410 l0 -4410 4410 0 4410 0 0 4410 0 4410 -4410 0 -4410 0 0
-4410z m5400 4318 c104 -34 188 -64 185 -66 -2 -2 -89 24 -193 57 -104 34
-201 61 -214 61 -27 0 -76 -41 -96 -80 l-12 -25 6 25 c9 39 68 90 105 90 17 0
116 -28 219 -62z m336 -109 c50 -16 103 -38 117 -49 24 -19 55 -86 45 -96 -3
-2 -11 14 -18 37 -18 52 -31 60 -168 104 -61 20 -112 38 -112 41 0 6 3 5 136
-37z m-676 -43 c0 -3 -4 -8 -10 -11 -5 -3 -10 -1 -10 4 0 6 5 11 10 11 6 0 10
-2 10 -4z m-23 -48 c-3 -8 -6 -5 -6 6 -1 11 2 17 5 13 3 -3 4 -12 1 -19z m-22
-93 c-23 -85 -31 -78 -9 9 9 37 19 65 22 62 2 -3 -4 -35 -13 -71z m880 -24
c-4 -23 -10 -41 -14 -41 -4 0 -3 20 3 45 13 54 21 51 11 -4z m-61 -241 c-16
-60 -32 -110 -35 -110 -3 0 8 51 25 114 17 63 33 113 35 111 2 -2 -9 -54 -25
-115z m-877 48 c-3 -8 -6 -5 -6 6 -1 11 2 17 5 13 3 -3 4 -12 1 -19z m-22 -93
c-23 -85 -31 -78 -9 9 9 37 19 65 22 62 2 -3 -4 -35 -13 -71z m819 -265 c-16
-60 -32 -110 -35 -110 -3 0 8 52 25 115 16 63 32 112 34 110 3 -2 -8 -54 -24
-115z m-877 48 c-3 -8 -6 -5 -6 6 -1 11 2 17 5 13 3 -3 4 -12 1 -19z m-22 -93
c-23 -85 -31 -78 -9 9 9 37 19 65 22 62 2 -3 -4 -35 -13 -71z m815 -280 c-18
-69 -35 -123 -38 -121 -2 3 11 61 29 130 18 69 35 123 37 121 3 -2 -10 -61
-28 -130z m-873 63 c-3 -8 -6 -5 -6 6 -1 11 2 17 5 13 3 -3 4 -12 1 -19z m-22
-93 c-23 -85 -31 -78 -9 9 9 37 19 65 22 62 2 -3 -4 -35 -13 -71z m-28 -97
c-3 -8 -6 -5 -6 6 -1 11 2 17 5 13 3 -3 4 -12 1 -19z m842 -182 c-18 -69 -35
-123 -37 -121 -2 2 11 60 29 129 18 69 35 123 37 121 3 -3 -10 -61 -29 -129z
m-872 62 c-3 -8 -6 -5 -6 6 -1 11 2 17 5 13 3 -3 4 -12 1 -19z m-22 -93 c-23
-85 -31 -78 -9 9 9 37 19 65 22 62 2 -3 -4 -35 -13 -71z m-28 -97 c-3 -8 -6
-5 -6 6 -1 11 2 17 5 13 3 -3 4 -12 1 -19z m870 -70 c-3 -8 -6 -5 -6 6 -1 11
2 17 5 13 3 -3 4 -12 1 -19z m-33 -132 c-15 -58 -30 -104 -32 -101 -2 2 8 51
24 109 15 59 29 104 31 102 2 -2 -8 -51 -23 -110z m-867 82 c-3 -8 -6 -5 -6 6
-1 11 2 17 5 13 3 -3 4 -12 1 -19z m-22 -93 c-23 -85 -31 -78 -9 9 9 37 19 65
22 62 2 -3 -4 -35 -13 -71z m-28 -97 c-3 -8 -6 -5 -6 6 -1 11 2 17 5 13 3 -3
4 -12 1 -19z m880 -30 c-3 -8 -6 -5 -6 6 -1 11 2 17 5 13 3 -3 4 -12 1 -19z
m1157 -9 c13 -6 93 -84 177 -173 84 -88 351 -370 594 -626 895 -942 987 -1041
980 -1048 -3 -4 -23 14 -43 38 -20 25 -63 73 -96 106 -34 34 -104 108 -156
164 -52 56 -124 132 -160 169 -36 36 -78 83 -94 104 -16 20 -33 37 -40 38 -6
0 -40 36 -76 79 -36 44 -70 80 -76 80 -5 0 -21 14 -33 31 -22 29 -118 133
-251 270 -30 31 -100 104 -155 163 -55 59 -139 149 -187 199 -49 50 -88 94
-88 99 0 4 -7 8 -15 8 -8 0 -15 4 -15 9 0 5 -37 47 -82 94 -46 47 -104 108
-129 135 -77 83 -119 81 -212 -13 l-49 -50 38 49 c62 78 111 100 168 75z
m-1167 -31 c-3 -8 -6 -5 -6 6 -1 11 2 17 5 13 3 -3 4 -12 1 -19z m-3092 -28
c10 -11 16 -20 13 -20 -3 0 -13 9 -23 20 -10 11 -16 20 -13 20 3 0 13 -9 23
-20z m3059 -104 c-15 -59 -29 -105 -31 -102 -3 3 7 52 23 110 15 59 29 105 31
102 2 -2 -8 -51 -23 -110z m-3304 81 c0 -1 -30 -32 -67 -67 l-68 -65 65 68
c60 62 70 72 70 64z m2415 -92 c-23 -85 -31 -78 -9 9 9 37 19 65 22 62 2 -3
-4 -35 -13 -71z m1847 -12 c-22 -26 -59 -66 -83 -88 -27 -26 -14 -6 35 53 43
51 81 91 83 88 3 -3 -13 -27 -35 -53z m-3932 22 c13 -14 21 -25 18 -25 -2 0
-15 11 -28 25 -13 14 -21 25 -18 25 2 0 15 -11 28 -25z m65 -75 c10 -11 16
-20 13 -20 -3 0 -13 9 -23 20 -10 11 -16 20 -13 20 3 0 13 -9 23 -20z m1992
-32 c-3 -8 -6 -5 -6 6 -1 11 2 17 5 13 3 -3 4 -12 1 -19z m-2557 9 c0 -1 -30
-32 -67 -67 l-68 -65 65 68 c60 62 70 72 70 64z m601 -24 c13 -16 12 -17 -3
-4 -17 13 -22 21 -14 21 2 0 10 -8 17 -17z m2836 -15 c-3 -8 -6 -5 -6 6 -1 11
2 17 5 13 3 -3 4 -12 1 -19z m-10 -40 c-3 -8 -6 -5 -6 6 -1 11 2 17 5 13 3 -3
4 -12 1 -19z m818 -63 c-43 -47 -74 -85 -70 -85 4 0 -9 -18 -28 -39 -43 -48
-54 -95 -34 -142 14 -32 138 -169 154 -169 5 0 21 -18 37 -40 17 -22 35 -40
40 -40 6 0 24 -18 40 -40 17 -22 35 -40 40 -40 6 0 22 -16 36 -35 14 -19 30
-35 36 -35 5 0 23 -18 40 -40 16 -22 34 -40 40 -40 5 0 25 -20 44 -45 19 -25
39 -45 44 -45 6 0 24 -18 40 -40 17 -22 35 -40 40 -40 6 0 24 -18 40 -40 17
-22 35 -40 40 -40 6 0 24 -18 40 -40 17 -22 35 -40 40 -40 6 0 22 -16 36 -35
14 -19 30 -35 36 -35 5 0 23 -18 40 -40 16 -22 34 -40 40 -40 5 0 23 -18 40
-40 16 -22 34 -40 40 -40 5 0 23 -18 40 -40 16 -22 34 -40 40 -40 5 0 23 -18
40 -40 16 -22 34 -40 39 -40 11 0 70 -70 58 -70 -4 0 -283 276 -620 612 -667
667 -659 657 -634 738 12 41 193 270 213 270 5 0 -25 -38 -67 -85z m-3585 50
c13 -14 21 -25 18 -25 -2 0 -15 11 -28 25 -13 14 -21 25 -18 25 2 0 15 -11 28
-25z m2734 -119 c-15 -58 -31 -106 -35 -106 -5 0 -2 17 5 38 7 20 21 70 31
110 9 40 19 71 22 69 2 -3 -8 -53 -23 -111z m-2673 47 c13 -16 12 -17 -3 -4
-10 7 -18 15 -18 17 0 8 8 3 21 -13z m1784 -58 c-23 -85 -31 -78 -9 9 9 37 19
65 22 62 2 -3 -4 -35 -13 -71z m-2665 52 c0 -1 -30 -32 -67 -67 l-68 -65 65
68 c60 62 70 72 70 64z m921 -44 c13 -16 12 -17 -3 -4 -10 7 -18 15 -18 17 0
8 8 3 21 -13z m69 -96 c0 -12 0 -11 -24 28 l-17 30 20 -24 c12 -13 21 -28 21
-34z m1647 -9 c-3 -8 -6 -5 -6 6 -1 11 2 17 5 13 3 -3 4 -12 1 -19z m-1640
-60 c-2 -13 -4 -5 -4 17 -1 22 1 32 4 23 2 -10 2 -28 0 -40z m2520 30 c-3 -8
-6 -5 -6 6 -1 11 2 17 5 13 3 -3 4 -12 1 -19z m-10 -40 c-3 -8 -6 -5 -6 6 -1
11 2 17 5 13 3 -3 4 -12 1 -19z m-2517 -27 c0 -5 -9 -19 -20 -32 l-20 -24 17
32 c19 34 23 39 23 24z m2484 -105 c-15 -58 -30 -104 -32 -101 -2 2 8 51 24
109 15 59 29 104 31 102 2 -2 -8 -51 -23 -110z m-3714 101 c0 -2 -12 -14 -27
-28 l-28 -24 24 28 c23 25 31 32 31 24z m2825 -112 c-23 -85 -31 -78 -9 9 9
37 19 65 22 62 2 -3 -4 -35 -13 -71z m-2905 32 c0 -2 -10 -12 -22 -23 l-23
-19 19 23 c18 21 26 27 26 19z m1240 0 c0 -2 -12 -14 -27 -28 l-28 -24 24 28
c23 25 31 32 31 24z m-80 -80 c0 -2 -12 -14 -27 -28 l-28 -24 24 28 c23 25 31
32 31 24z m-1240 -10 c0 -1 -30 -32 -67 -67 l-68 -65 65 68 c60 62 70 72 70
64z m2957 -39 c-3 -8 -6 -5 -6 6 -1 11 2 17 5 13 3 -3 4 -12 1 -19z m880 -30
c-3 -8 -6 -5 -6 6 -1 11 2 17 5 13 3 -3 4 -12 1 -19z m-2677 -1 c0 -2 -12 -14
-27 -28 l-28 -24 24 28 c23 25 31 32 31 24z m2667 -39 c-3 -8 -6 -5 -6 6 -1
11 2 17 5 13 3 -3 4 -12 1 -19z m-33 -132 c-15 -58 -30 -104 -32 -101 -2 2 8
51 24 109 15 59 29 104 31 102 2 -2 -8 -51 -23 -110z m-2704 101 c0 -2 -15
-16 -32 -33 l-33 -29 29 33 c28 30 36 37 36 29z m-1260 -40 c0 -1 -28 -29 -62
-62 l-63 -60 60 63 c55 58 65 67 65 59z m3066 -102 c-14 -44 -25 -74 -25 -66
-1 22 43 177 46 161 2 -8 -8 -51 -21 -95z m-1896 52 c0 -2 -15 -16 -32 -33
l-33 -29 29 33 c28 30 36 37 36 29z m-80 -80 c0 -2 -15 -16 -32 -33 l-33 -29
29 33 c28 30 36 37 36 29z m-1250 -40 c0 -2 -12 -14 -27 -28 l-28 -24 24 28
c23 25 31 32 31 24z m4087 -29 c-3 -8 -6 -5 -6 6 -1 11 2 17 5 13 3 -3 4 -12
1 -19z m-2907 -1 c0 -2 -17 -19 -37 -38 l-38 -34 34 38 c33 34 41 42 41 34z
m2897 -39 c-3 -8 -6 -5 -6 6 -1 11 2 17 5 13 3 -3 4 -12 1 -19z m-4137 9 c0
-2 -17 -19 -37 -38 l-38 -34 34 38 c33 34 41 42 41 34z m4104 -141 c-15 -58
-31 -106 -35 -106 -5 0 -2 17 5 38 7 20 21 70 31 110 9 40 19 71 22 69 2 -3
-8 -53 -23 -111z m-3224 -191 c-157 -157 -287 -285 -290 -285 -3 0 123 128
280 285 157 157 287 285 290 285 3 0 -123 -128 -280 -285z m2332 170 c-8 -30
-17 -53 -19 -52 -6 6 20 107 27 107 4 0 0 -25 -8 -55z m-3392 -28 c0 -2 -12
-14 -27 -28 l-28 -24 24 28 c23 25 31 32 31 24z m3367 -59 c-3 -8 -6 -5 -6 6
-1 11 2 17 5 13 3 -3 4 -12 1 -19z m-3437 -11 c0 -2 -15 -16 -32 -33 l-33 -29
29 33 c28 30 36 37 36 29z m4317 -19 c-3 -8 -6 -5 -6 6 -1 11 2 17 5 13 3 -3
4 -12 1 -19z m-10 -40 c-3 -8 -6 -5 -6 6 -1 11 2 17 5 13 3 -3 4 -12 1 -19z
m-882 2 c3 -5 1 -10 -4 -10 -6 0 -11 5 -11 10 0 6 2 10 4 10 3 0 8 -4 11 -10z
m849 -134 c-15 -58 -30 -104 -32 -101 -2 2 8 51 24 109 15 59 29 104 31 102 2
-2 -8 -51 -23 -110z m-4364 91 c0 -1 -30 -32 -67 -67 l-68 -65 65 68 c60 62
70 72 70 64z m3466 -131 c-11 -41 -22 -73 -24 -71 -6 6 32 145 39 145 3 0 -3
-33 -15 -74z m-3636 -49 c0 -2 -10 -12 -22 -23 l-23 -19 19 23 c18 21 26 27
26 19z m4497 -49 c-3 -8 -6 -5 -6 6 -1 11 2 17 5 13 3 -3 4 -12 1 -19z m3774
-392 c16 -21 29 -46 29 -55 -1 -9 -7 -2 -14 14 -7 17 -53 71 -102 120 -49 50
-102 107 -118 128 -16 20 -33 37 -40 38 -6 0 -37 33 -69 72 -38 47 1 11 113
-103 94 -96 185 -193 201 -214z m-8341 371 c0 -2 -15 -16 -32 -33 l-33 -29 29
33 c28 30 36 37 36 29z m4529 -131 c-18 -69 -34 -124 -37 -122 -2 3 11 61 29
130 17 70 34 124 36 122 2 -2 -10 -60 -28 -130z m-3369 111 c0 -2 -17 -19 -37
-38 l-38 -34 34 38 c33 34 41 42 41 34z m5783 -92 c36 -45 30 -45 -13 0 -19
19 -30 35 -24 35 5 0 22 -16 37 -35z m-5933 -60 c-41 -41 -77 -75 -79 -75 -3
0 28 34 69 75 41 41 77 75 79 75 3 0 -28 -34 -69 -75z m2616 -19 c-11 -41 -22
-73 -25 -71 -6 6 32 145 40 145 3 0 -3 -33 -15 -74z m3397 -1 c36 -45 30 -45
-13 0 -19 19 -30 35 -24 35 5 0 22 -16 37 -35z m-7193 12 c0 -2 -12 -14 -27
-28 l-28 -24 24 28 c23 25 31 32 31 24z m7326 -145 c94 -93 130 -132 123 -132
-2 0 -54 50 -114 110 -60 61 -107 110 -103 110 3 0 46 -40 94 -88z m-7396 75
c0 -2 -15 -16 -32 -33 l-33 -29 29 33 c28 30 36 37 36 29z m1150 -20 c0 -2
-15 -16 -32 -33 l-33 -29 29 33 c28 30 36 37 36 29z m3577 -19 c-3 -8 -6 -5
-6 6 -1 11 2 17 5 13 3 -3 4 -12 1 -19z m-44 -172 c-21 -81 -39 -143 -41 -138
-2 6 13 70 33 145 19 74 35 138 35 142 0 5 3 6 6 3 3 -3 -12 -72 -33 -152z
m-4773 111 c0 -2 -10 -12 -22 -23 l-23 -19 19 23 c18 21 26 27 26 19z m1160 0
c0 -2 -15 -16 -32 -33 l-33 -29 29 33 c28 30 36 37 36 29z m-95 -97 c-17 -19
-17 -21 1 -42 l18 -23 -24 22 c-23 22 -23 23 -5 43 10 11 20 20 23 20 3 0 -3
-9 -13 -20z m2811 -54 c-11 -41 -22 -73 -24 -71 -6 6 32 145 39 145 3 0 -3
-33 -15 -74z m-3929 32 c-3 -8 -6 -5 -6 6 -1 11 2 17 5 13 3 -3 4 -12 1 -19z
m6913 -757 c-413 -413 -754 -751 -758 -751 -4 0 -20 -18 -35 -40 -16 -22 -34
-40 -40 -40 -7 0 -25 -20 -41 -45 -24 -39 -27 -52 -22 -87 4 -22 16 -55 27
-72 l21 -31 -25 27 c-35 37 -44 104 -22 148 16 30 1636 1652 1643 1645 2 -2
-334 -341 -748 -754z m1732 582 c-55 -59 -126 -133 -158 -163 l-58 -55 60 72
c32 39 64 72 70 72 7 1 24 18 40 39 32 43 137 150 143 146 2 -2 -42 -52 -97
-111z m-7457 87 c10 -11 16 -20 13 -20 -3 0 -13 9 -23 20 -10 11 -16 20 -13
20 3 0 13 -9 23 -20z m-1135 -25 c13 -14 21 -25 18 -25 -2 0 -15 11 -28 25
-13 14 -21 25 -18 25 2 0 15 -11 28 -25z m60 -60 c13 -14 21 -25 18 -25 -2 0
-15 11 -28 25 -13 14 -21 25 -18 25 2 0 15 -11 28 -25z m1155 5 c10 -11 16
-20 13 -20 -3 0 -13 9 -23 20 -10 11 -16 20 -13 20 3 0 13 -9 23 -20z m3494
-74 c-12 -48 -24 -85 -26 -82 -3 3 5 43 17 91 13 47 25 84 27 81 2 -2 -6 -42
-18 -90z m-917 -116 c-14 -49 -27 -88 -29 -86 -6 6 40 176 48 176 3 0 -5 -40
-19 -90z m-3566 8 l29 -33 -32 29 c-31 28 -38 36 -30 36 2 0 16 -15 33 -32z
m4442 -46 c-6 -29 -13 -50 -16 -47 -2 2 1 27 8 55 7 28 14 49 16 47 3 -2 -1
-27 -8 -55z m3702 -8 c0 -7 -495 -528 -536 -564 -15 -14 -1 7 31 47 33 39 65
72 71 72 6 1 26 20 45 44 33 42 123 137 249 266 36 36 78 83 94 104 25 33 46
47 46 31z m-8059 -31 c13 -16 12 -17 -3 -4 -10 7 -18 15 -18 17 0 8 8 3 21
-13z m4318 -117 c-12 -48 -24 -85 -26 -82 -3 3 5 43 17 91 13 47 25 84 27 81
2 -2 -6 -42 -18 -90z m-4204 -6 c33 -33 57 -60 54 -60 -2 0 -31 27 -64 60 -33
33 -57 60 -54 60 2 0 31 -27 64 -60z m3285 -115 c-13 -47 -25 -84 -27 -81 -2
2 6 42 18 90 13 47 25 83 27 81 3 -3 -5 -43 -18 -90z m-1989 8 c13 -16 12 -17
-3 -4 -10 7 -18 15 -18 17 0 8 8 3 21 -13z m2865 -48 c-8 -27 -15 -42 -15 -31
-1 23 22 103 26 90 1 -5 -4 -31 -11 -59z m-4030 13 l29 -33 -32 29 c-31 28
-38 36 -30 36 2 0 16 -15 33 -32z m1245 -45 c13 -16 12 -17 -3 -4 -17 13 -22
21 -14 21 2 0 10 -8 17 -17z m-1171 -28 c13 -14 21 -25 18 -25 -2 0 -15 11
-28 25 -13 14 -21 25 -18 25 2 0 15 -11 28 -25z m3055 -15 c3 -5 1 -10 -4 -10
-6 0 -11 5 -11 10 0 6 2 10 4 10 3 0 8 -4 11 -10z m872 -32 c-3 -8 -6 -5 -6 6
-1 11 2 17 5 13 3 -3 4 -12 1 -19z m-2676 -5 c13 -16 12 -17 -3 -4 -17 13 -22
21 -14 21 2 0 10 -8 17 -17z m2658 -72 c-7 -28 -15 -49 -17 -46 -2 2 2 27 9
54 7 28 15 49 17 46 2 -2 -2 -27 -9 -54z m-2584 -1 c10 -11 16 -20 13 -20 -3
0 -13 9 -23 20 -10 11 -16 20 -13 20 3 0 13 -9 23 -20z m1675 -85 c-13 -47
-25 -84 -27 -81 -2 2 6 42 18 90 13 47 25 83 27 81 3 -3 -5 -43 -18 -90z
m-2834 33 l29 -33 -32 29 c-18 17 -33 31 -33 33 0 8 8 1 36 -29z m1239 -28
c10 -11 16 -20 13 -20 -3 0 -13 9 -23 20 -10 11 -16 20 -13 20 3 0 13 -9 23
-20z m2471 -45 c-8 -27 -15 -42 -15 -31 -1 23 22 103 26 90 1 -5 -4 -31 -11
-59z m-3636 0 c13 -14 21 -25 18 -25 -2 0 -15 11 -28 25 -13 14 -21 25 -18 25
2 0 15 -11 28 -25z m6764 -162 c-339 -356 -580 -609 -829 -871 -137 -145 -257
-268 -267 -273 -29 -15 -84 -10 -111 11 -14 11 -103 113 -199 227 -228 274
-232 278 -160 208 34 -33 62 -64 62 -70 0 -6 37 -51 83 -100 45 -49 81 -91 80
-94 -1 -3 34 -45 78 -93 65 -71 86 -88 109 -88 48 0 73 15 120 74 25 31 50 56
56 56 5 0 21 14 34 32 22 30 102 115 245 263 33 34 105 110 160 169 55 59 147
156 205 216 58 60 150 157 205 216 55 58 127 134 160 168 34 33 73 78 89 99
16 20 35 37 43 37 8 0 -65 -84 -163 -187z m-5518 125 l29 -33 -32 29 c-18 17
-33 31 -33 33 0 8 8 1 36 -29z m-1126 -93 c35 -36 62 -65 59 -65 -2 0 -34 29
-69 65 -35 36 -62 65 -59 65 2 0 34 -29 69 -65z m1206 13 l29 -33 -32 29 c-18
17 -33 31 -33 33 0 8 8 1 36 -29z m2281 10 c-3 -8 -6 -5 -6 6 -1 11 2 17 5 13
3 -3 4 -12 1 -19z m-17 -78 c-7 -28 -14 -49 -17 -46 -3 3 1 28 8 55 7 28 15
49 17 46 2 -2 -1 -27 -8 -55z m-883 28 c-3 -8 -6 -5 -6 6 -1 11 2 17 5 13 3
-3 4 -12 1 -19z m-1301 -40 l29 -33 -32 29 c-18 17 -33 31 -33 33 0 8 8 1 36
-29z m1274 -73 c-13 -47 -25 -84 -27 -81 -2 2 6 42 18 90 13 47 25 83 27 81 3
-3 -5 -43 -18 -90z m-2435 5 c10 -11 16 -20 13 -20 -3 0 -13 9 -23 20 -10 11
-16 20 -13 20 3 0 13 -9 23 -20z m1241 -12 l29 -33 -32 29 c-31 28 -38 36 -30
36 2 0 16 -15 33 -32z m2068 -42 c-9 -37 -18 -65 -21 -63 -2 3 4 34 13 71 9
37 18 65 21 63 2 -3 -4 -34 -13 -71z m-1994 -31 c19 -19 32 -35 29 -35 -3 0
-20 16 -39 35 -19 19 -32 35 -29 35 3 0 20 -16 39 -35z m-1230 0 c13 -14 21
-25 18 -25 -2 0 -15 11 -28 25 -13 14 -21 25 -18 25 2 0 15 -11 28 -25z m1310
-80 c19 -19 32 -35 29 -35 -3 0 -20 16 -39 35 -19 19 -32 35 -29 35 3 0 20
-16 39 -35z m1887 13 c-3 -8 -6 -5 -6 6 -1 11 2 17 5 13 3 -3 4 -12 1 -19z
m-33 -132 c-15 -59 -29 -104 -32 -102 -2 3 8 52 24 110 15 59 29 104 32 102 2
-3 -8 -52 -24 -110z m-867 82 c-3 -8 -6 -5 -6 6 -1 11 2 17 5 13 3 -3 4 -12 1
-19z m-907 -43 c19 -19 32 -35 29 -35 -3 0 -20 16 -39 35 -19 19 -32 35 -29
35 3 0 20 -16 39 -35z m880 -70 c-13 -47 -25 -84 -27 -81 -2 2 6 42 18 90 13
47 25 83 27 81 3 -3 -5 -43 -18 -90z m-2070 20 c35 -36 62 -65 59 -65 -2 0
-34 29 -69 65 -35 36 -62 65 -59 65 2 0 34 -29 69 -65z m1251 -12 c13 -16 12
-17 -3 -4 -10 7 -18 15 -18 17 0 8 8 3 21 -13z m38 -62 c-2 -6 -10 2 -17 17
-11 25 -11 25 4 10 9 -9 15 -21 13 -27z m8 -68 c-3 -10 -5 -2 -5 17 0 19 2 27
5 18 2 -10 2 -26 0 -35z m-1137 -28 c35 -36 62 -65 59 -65 -2 0 -34 29 -69 65
-35 36 -62 65 -59 65 2 0 34 -29 69 -65z m2767 43 c-3 -8 -6 -5 -6 6 -1 11 2
17 5 13 3 -3 4 -12 1 -19z m-882 -8 c3 -5 1 -10 -4 -10 -6 0 -11 5 -11 10 0 6
2 10 4 10 3 0 8 -4 11 -10z m872 -32 c-3 -8 -6 -5 -6 6 -1 11 2 17 5 13 3 -3
4 -12 1 -19z m-1627 -7 c0 -5 -9 -19 -20 -32 l-20 -24 17 32 c19 34 23 39 23
24z m1589 -145 c-17 -70 -33 -125 -36 -123 -2 3 10 61 28 131 17 70 33 125 36
123 2 -3 -10 -61 -28 -131z m-1629 80 c0 -2 -8 -10 -17 -17 -16 -13 -17 -12
-4 4 13 16 21 21 21 13z m735 -111 c-23 -85 -31 -78 -9 9 9 37 19 65 22 62 2
-3 -4 -35 -13 -71z m-775 62 c0 -2 -10 -12 -22 -23 l-23 -19 19 23 c18 21 26
27 26 19z m-850 -92 c13 -14 21 -25 18 -25 -2 0 -15 11 -28 25 -13 14 -21 25
-18 25 2 0 15 -11 28 -25z m780 12 c0 -2 -12 -14 -27 -28 l-28 -24 24 28 c23
25 31 32 31 24z m-50 -61 c0 -2 -8 -10 -17 -17 -16 -13 -17 -12 -4 4 13 16 21
21 21 13z m875 -16 c3 -5 1 -10 -4 -10 -6 0 -11 5 -11 10 0 6 2 10 4 10 3 0 8
-4 11 -10z m-1514 -27 c13 -16 12 -17 -3 -4 -10 7 -18 15 -18 17 0 8 8 3 21
-13z m2386 -5 c-3 -8 -6 -5 -6 6 -1 11 2 17 5 13 3 -3 4 -12 1 -19z m-1787 -1
c0 -2 -10 -12 -22 -23 l-23 -19 19 23 c18 21 26 27 26 19z m1754 -131 c-15
-59 -29 -105 -31 -102 -3 3 7 52 23 110 15 59 29 105 31 102 2 -2 -8 -51 -23
-110z m-2244 19 c35 -36 62 -65 59 -65 -2 0 -34 29 -69 65 -35 36 -62 65 -59
65 2 0 34 -29 69 -65z m1350 -50 c-13 -47 -25 -84 -27 -81 -2 2 6 42 18 90 13
47 25 83 27 81 3 -3 -5 -43 -18 -90z m-930 82 c0 -2 -10 -12 -22 -23 l-23 -19
19 23 c18 21 26 27 26 19z m-40 -51 c0 -2 -8 -10 -17 -17 -16 -13 -17 -12 -4
4 13 16 21 21 21 13z m-50 -59 c0 -2 -10 -12 -22 -23 l-23 -19 19 23 c18 21
26 27 26 19z m-205 -57 c10 -11 16 -20 13 -20 -3 0 -13 9 -23 20 -10 11 -16
20 -13 20 3 0 13 -9 23 -20z m2082 -22 c-3 -8 -6 -5 -6 6 -1 11 2 17 5 13 3
-3 4 -12 1 -19z m-882 -8 c3 -5 1 -10 -4 -10 -6 0 -11 5 -11 10 0 6 2 10 4 10
3 0 8 -4 11 -10z m872 -32 c-3 -8 -6 -5 -6 6 -1 11 2 17 5 13 3 -3 4 -12 1
-19z m-33 -132 c-15 -59 -29 -105 -31 -102 -3 3 7 52 23 110 15 59 29 105 31
102 2 -2 -8 -51 -23 -110z m-899 -51 c-23 -85 -31 -78 -9 9 9 37 19 65 22 62
2 -3 -4 -35 -13 -71z m862 -87 c-3 -8 -6 -5 -6 6 -1 11 2 17 5 13 3 -3 4 -12
1 -19z m-882 -8 c3 -5 1 -10 -4 -10 -6 0 -11 5 -11 10 0 6 2 10 4 10 3 0 8 -4
11 -10z m872 -32 c-3 -8 -6 -5 -6 6 -1 11 2 17 5 13 3 -3 4 -12 1 -19z m-38
-152 c-18 -69 -35 -124 -37 -121 -3 2 10 61 28 130 18 69 35 123 37 121 2 -2
-10 -60 -28 -130z m-889 -11 c-13 -47 -25 -84 -27 -81 -2 2 6 42 18 90 13 47
25 83 27 81 3 -3 -5 -43 -18 -90z m847 -147 c-3 -8 -6 -5 -6 6 -1 11 2 17 5
13 3 -3 4 -12 1 -19z m-41 -158 c-19 -69 -35 -119 -35 -112 -1 18 63 256 66
246 2 -5 -12 -65 -31 -134z m-887 -7 c-10 -38 -19 -72 -19 -77 0 -5 -2 -7 -5
-4 -7 7 27 148 36 148 4 0 -1 -30 -12 -67z m848 -145 c-3 -8 -6 -5 -6 6 -1 11
2 17 5 13 3 -3 4 -12 1 -19z m-41 -158 c-19 -69 -35 -119 -35 -112 -1 18 63
256 66 246 2 -5 -12 -65 -31 -134z m-891 -25 c-23 -85 -31 -78 -9 9 9 37 19
65 22 62 2 -3 -4 -35 -13 -71z m-28 -97 c-3 -8 -6 -5 -6 6 -1 11 2 17 5 13 3
-3 4 -12 1 -19z m880 -30 c-3 -8 -6 -5 -6 6 -1 11 2 17 5 13 3 -3 4 -12 1 -19z
m-41 -158 c-19 -69 -35 -119 -35 -112 -1 18 63 256 66 246 2 -5 -12 -65 -31
-134z m-891 -25 c-10 -36 -20 -63 -23 -61 -2 3 4 35 13 71 10 36 20 63 23 61
2 -3 -4 -35 -13 -71z m852 -127 c-3 -8 -6 -5 -6 6 -1 11 2 17 5 13 3 -3 4 -12
1 -19z m-23 -92 c-9 -37 -19 -65 -22 -62 -2 3 4 35 13 71 23 85 31 78 9 -9z
m-36 -134 c-6 -29 -13 -50 -16 -47 -2 2 1 27 8 55 7 28 14 49 16 47 3 -2 -1
-27 -8 -55z m-598 -75 c96 -32 202 -67 235 -78 33 -10 80 -25 105 -35 25 -9
70 -20 100 -24 l55 -7 -45 -2 c-33 -1 -126 26 -345 99 -164 55 -303 105 -309
111 -8 9 -6 10 9 4 11 -4 99 -35 195 -68z m570 -40 c-7 -26 -24 -57 -41 -73
-16 -15 -29 -24 -29 -20 0 5 11 17 24 27 15 12 29 38 36 69 7 28 14 49 17 47
2 -3 -1 -25 -7 -50z"/>
</g>
</svg>
